<svg xmlns="http://www.w3.org/2000/svg" viewBox="0 0 512 512">
  <rect width="512" height="512" rx="96" fill="#f3ecde"/>
  <rect x="64" y="72" width="384" height="368" rx="56" fill="#0f172a"/>
  <rect x="104" y="120" width="24" height="232" rx="12" fill="#f8fafc"/>
  <rect x="144" y="120" width="12" height="232" rx="6" fill="#f8fafc"/>
  <rect x="172" y="120" width="28" height="232" rx="14" fill="#f8fafc"/>
  <rect x="216" y="120" width="10" height="232" rx="5" fill="#f8fafc"/>
  <rect x="242" y="120" width="18" height="232" rx="9" fill="#f8fafc"/>
  <rect x="278" y="120" width="30" height="232" rx="15" fill="#f8fafc"/>
  <rect x="324" y="120" width="12" height="232" rx="6" fill="#f8fafc"/>
  <rect x="352" y="120" width="22" height="232" rx="11" fill="#f8fafc"/>
  <rect x="390" y="120" width="18" height="232" rx="9" fill="#f8fafc"/>
  <rect x="112" y="382" width="288" height="18" rx="9" fill="#f59e0b"/>
  <rect x="112" y="412" width="180" height="14" rx="7" fill="#f59e0b"/>
</svg>
